HIERARCHY
ROOT Hips
{
	OFFSET -0.001795 -0.223333 0.028219
	CHANNELS 6 Xposition Yposition Zposition Zrotation Yrotation Xrotation 
	JOINT LeftUpLeg
	{
		OFFSET 0.069520 -0.091406 -0.006815
		CHANNELS 3 Zrotation Yrotation Xrotation
		JOINT LeftLeg
		{
			OFFSET 0.034277 -0.375199 -0.004496
			CHANNELS 3 Zrotation Yrotation Xrotation
			JOINT LeftFoot
			{
				OFFSET -0.013596 -0.397961 -0.043693
				CHANNELS 3 Zrotation Yrotation Xrotation
				JOINT LeftToe
				{
					OFFSET 0.026358 -0.055791 0.119288
					CHANNELS 3 Zrotation Yrotation Xrotation
					End Site
					{
						OFFSET 0.000000 0.000000 0.000000
					}
				}
			}
		}
	}
	JOINT RightUpLeg
	{
		OFFSET -0.067670 -0.090522 -0.004320
		CHANNELS 3 Zrotation Yrotation Xrotation
		JOINT RightLeg
		{
			OFFSET -0.038290 -0.382569 -0.008850
			CHANNELS 3 Zrotation Yrotation Xrotation
			JOINT RightFoot
			{
				OFFSET 0.015774 -0.398415 -0.042312
				CHANNELS 3 Zrotation Yrotation Xrotation
				JOINT RightToe
				{
					OFFSET -0.025372 -0.048144 0.123348
					CHANNELS 3 Zrotation Yrotation Xrotation
					End Site
					{
						OFFSET 0.000000 0.000000 0.000000
					}
				}
			}
		}
	}
	JOINT Spine
	{
		OFFSET -0.002533 0.108963 -0.026696
		CHANNELS 3 Zrotation Yrotation Xrotation
		JOINT Spine1
		{
			OFFSET 0.005487 0.135180 0.001092
			CHANNELS 3 Zrotation Yrotation Xrotation
			JOINT Spine2
			{
				OFFSET 0.001457 0.052922 0.025425
				CHANNELS 3 Zrotation Yrotation Xrotation
				JOINT Neck
				{
					OFFSET -0.002778 0.213870 -0.042857
					CHANNELS 3 Zrotation Yrotation Xrotation
					JOINT Head
					{
						OFFSET 0.005152 0.064970 0.051349
						CHANNELS 3 Zrotation Yrotation Xrotation
						End Site
						{
							OFFSET 0.000000 0.000000 0.000000
						}
					}
				}
				JOINT LeftShoulder
				{
					OFFSET 0.078845 0.121749 -0.034090
					CHANNELS 3 Zrotation Yrotation Xrotation
					JOINT LeftArm
					{
						OFFSET 0.090977 0.030469 -0.008868
						CHANNELS 3 Zrotation Yrotation Xrotation
						JOINT LeftForeArm
						{
							OFFSET 0.259612 -0.012772 -0.027456
							CHANNELS 3 Zrotation Yrotation Xrotation
							JOINT LeftHand
							{
								OFFSET 0.249234 0.008986 -0.001171
								CHANNELS 3 Zrotation Yrotation Xrotation
								End Site
								{
									OFFSET 0.000000 0.000000 0.000000
								}
							}
						}
					}
				}
				JOINT RightShoulder
				{
					OFFSET -0.081759 0.118833 -0.038615
					CHANNELS 3 Zrotation Yrotation Xrotation
					JOINT RightArm
					{
						OFFSET -0.096012 0.032551 -0.009143
						CHANNELS 3 Zrotation Yrotation Xrotation
						JOINT RightForeArm
						{
							OFFSET -0.253742 -0.013329 -0.021401
							CHANNELS 3 Zrotation Yrotation Xrotation
							JOINT RightHand
							{
								OFFSET -0.255298 0.007772 -0.005559
								CHANNELS 3 Zrotation Yrotation Xrotation
								End Site
								{
									OFFSET 0.000000 0.000000 0.000000
								}
							}
						}
					}
				}
			}
		}
	}
}
MOTION
Frames: 12
Frame Time: 0.050000
0.000000 0.929068 0.000000 0.648567 -8.199746 -3.528528 4.066042 -0.695306 -16.068090 -3.745930 0.615820 10.682447 5.484697 12.566060 11.854528 0.000000 0.000000 0.000000 2.472557 -0.441429 3.422714 4.878133 -0.400877 5.939235 -7.887125 -18.340455 -1.118559 0.000000 0.000000 0.000000 3.756066 -0.428144 6.468835 -2.137242 0.958582 -3.543539 3.495472 4.225666 11.690594 1.035424 0.694269 -20.374402 0.000000 0.000000 0.000000 -24.034046 -7.600461 2.729152 -51.071943 -10.296042 -2.579671 -10.196540 -43.935932 6.292012 0.000000 0.000000 0.000000 17.561231 11.663662 4.443120 47.492503 15.085017 0.553419 9.421874 42.865945 5.114479 0.000000 0.000000 0.000000 
-0.000518 0.928396 0.012044 -0.226015 -7.660337 -2.694184 5.429104 -0.515296 -16.600526 -3.928179 0.618434 9.652127 4.258311 10.624526 11.570473 0.000000 0.000000 0.000000 3.115447 -0.577373 4.229323 4.793649 -0.403924 5.260930 -8.551136 -19.998262 -0.243764 0.000000 0.000000 0.000000 4.530734 -0.340506 4.534604 -2.837767 1.307408 -2.428901 3.872285 4.590899 11.709722 0.979269 0.848885 -20.893529 0.000000 0.000000 0.000000 -22.793037 -7.292213 2.335262 -52.132917 -10.478361 -2.457891 -10.519448 -43.927020 6.349908 0.000000 0.000000 0.000000 16.477099 10.318867 3.907175 48.603962 15.957402 0.898008 13.838265 44.670981 7.274072 0.000000 0.000000 0.000000 
-0.000910 0.929550 0.024051 0.325999 -6.711776 -2.578319 3.830375 -0.740290 -15.030327 -2.689561 0.321538 7.279984 4.748435 11.451148 11.023678 0.000000 0.000000 0.000000 2.559133 -0.620019 4.902771 4.304282 -0.356493 4.929439 -9.081211 -21.269478 -0.067804 0.000000 0.000000 0.000000 4.338829 -0.324157 4.345015 -3.142617 1.416309 -4.002795 3.334822 4.437312 13.090678 0.782247 1.010700 -20.987510 0.000000 0.000000 0.000000 -21.840481 -7.136508 2.193778 -52.609394 -9.772414 -2.887640 -10.244222 -44.860708 6.394311 0.000000 0.000000 0.000000 16.814342 10.144823 3.968362 47.933477 17.097968 1.158983 14.244426 45.642431 7.735248 0.000000 0.000000 0.000000 
-0.001389 0.929983 0.036108 0.332142 -6.537136 -2.337450 4.296889 -0.661181 -14.537621 -3.361500 0.438914 6.146948 4.846239 11.852497 12.953611 0.000000 0.000000 0.000000 2.737694 -0.661289 5.138795 4.198409 -0.346188 4.763404 -10.011824 -23.305206 0.206816 0.000000 0.000000 0.000000 3.603478 -0.203352 2.881543 -3.332442 1.516748 -3.404137 3.702042 4.624976 13.195560 0.531215 1.195812 -21.155027 0.000000 0.000000 0.000000 -21.577890 -6.116906 1.550853 -53.314225 -9.841422 -2.866104 -10.232573 -46.229432 6.602363 0.000000 0.000000 0.000000 16.690413 10.505143 4.211178 47.458295 17.900576 1.436130 17.173638 47.979772 9.546695 0.000000 0.000000 0.000000 
-0.001769 0.930147 0.047584 0.416549 -6.137219 -2.209287 4.020329 -0.698744 -14.262574 -2.986128 0.365030 6.163724 4.796705 11.736711 12.254902 0.000000 0.000000 0.000000 2.456702 -0.684604 5.507901 4.031404 -0.332051 4.527930 -9.981859 -23.287555 0.538708 0.000000 0.000000 0.000000 3.067039 -0.184888 2.753655 -3.802173 1.719961 -3.832065 3.892542 4.780218 13.367391 0.708143 1.163001 -21.574380 0.000000 0.000000 0.000000 -20.369445 -6.287134 1.597409 -54.311666 -9.532274 -3.041078 -9.140542 -48.764964 6.496812 0.000000 0.000000 0.000000 16.952979 10.317325 4.208841 46.818972 18.969533 1.777829 18.537034 50.646192 10.901263 0.000000 0.000000 0.000000 
-0.002175 0.930166 0.058445 0.493136 -5.568177 -1.831753 3.819488 -0.729744 -13.992330 -3.019642 0.361941 5.688238 4.494672 11.297767 12.099827 0.000000 0.000000 0.000000 2.254891 -0.719392 5.915469 4.008199 -0.336699 4.456097 -10.068160 -23.535751 0.870663 0.000000 0.000000 0.000000 2.354480 -0.138885 2.199291 -3.837510 1.731043 -4.178154 3.848056 4.860125 13.781522 0.634528 1.285321 -22.039552 0.000000 0.000000 0.000000 -20.218840 -5.732334 1.199790 -53.932293 -9.746938 -2.945875 -10.851900 -52.901830 7.959161 0.000000 0.000000 0.000000 17.057620 11.067120 4.723300 46.470171 20.250432 2.185476 18.886256 52.664830 11.712253 0.000000 0.000000 0.000000 
-0.002157 0.929562 0.068827 0.419937 -4.746027 -1.715210 3.860526 -0.738738 -13.908146 -2.915228 0.333024 5.931517 4.435174 11.157660 11.130274 0.000000 0.000000 0.000000 2.040321 -0.721333 6.033080 4.447251 -0.404257 4.618772 -10.402406 -24.359076 0.671499 0.000000 0.000000 0.000000 1.884730 -0.126032 2.126434 -3.873188 1.762299 -3.942018 3.609231 5.187736 13.741670 1.093423 1.141984 -22.142400 0.000000 0.000000 0.000000 -19.741274 -6.226627 1.256080 -53.201905 -10.613837 -2.482060 -12.974687 -57.949054 9.847568 0.000000 0.000000 0.000000 17.759665 11.920354 5.437055 45.916006 21.713884 2.642269 17.099690 54.751759 11.527529 0.000000 0.000000 0.000000 
-0.001433 0.929213 0.078966 0.230472 -4.132237 -1.613593 3.766047 -0.762032 -13.863810 -2.756412 0.295914 6.324097 4.462097 11.137739 10.249060 0.000000 0.000000 0.000000 2.110304 -0.760033 6.291248 4.585702 -0.430802 4.905074 -10.817272 -25.322548 0.760727 0.000000 0.000000 0.000000 1.484991 -0.102863 1.834973 -3.863406 1.774354 -3.554197 3.383882 5.400582 13.634782 1.811978 0.798946 -21.951592 0.000000 0.000000 0.000000 -19.029848 -6.700658 1.377949 -52.660930 -12.001737 -1.814587 -15.267704 -63.366340 12.225899 0.000000 0.000000 0.000000 17.695964 13.354529 6.360072 46.108513 23.235934 3.241018 13.321156 56.640404 10.123739 0.000000 0.000000 0.000000 
0.000411 0.929036 0.089699 -0.024106 -3.653617 -1.468146 3.674295 -0.785382 -13.887733 -2.435286 0.231441 6.500128 4.353720 10.940453 9.839829 0.000000 0.000000 0.000000 2.031666 -0.756824 6.276443 4.928961 -0.485299 5.330056 -11.187849 -26.194199 0.659423 0.000000 0.000000 0.000000 1.278087 -0.087409 1.596261 -3.982237 1.834939 -3.429647 3.238775 6.045806 13.656945 2.804426 0.352629 -21.870692 0.000000 0.000000 0.000000 -18.303673 -8.040198 1.872827 -52.283059 -13.663124 -1.037786 -17.223179 -68.343258 14.469912 0.000000 0.000000 0.000000 18.107007 14.531471 7.302209 45.872816 24.620453 3.692441 10.577373 58.552253 9.243510 0.000000 0.000000 0.000000 
0.003663 0.928930 0.101498 -0.099802 -3.169293 -1.194732 3.210195 -0.837620 -13.611955 -2.108168 0.168612 6.401025 4.293528 10.822824 9.454996 0.000000 0.000000 0.000000 1.975075 -0.755359 6.257330 4.735377 -0.463415 5.976407 -11.552843 -27.028975 0.757960 0.000000 0.000000 0.000000 0.858248 -0.059138 1.140147 -4.000444 1.852796 -3.155318 3.264236 6.104561 13.620777 3.484645 0.004069 -21.844424 0.000000 0.000000 0.000000 -17.529036 -8.504241 2.067665 -52.130191 -15.247139 -0.336338 -19.212907 -73.119729 17.160930 0.000000 0.000000 0.000000 17.416675 15.864161 8.022365 46.471478 26.140670 4.409636 7.725993 60.628084 8.116305 0.000000 0.000000 0.000000 
0.008177 0.929393 0.114589 -0.212262 -3.080957 -1.201890 2.801603 -0.844765 -12.914482 -1.880815 0.130686 6.179635 4.175903 10.663175 9.622178 0.000000 0.000000 0.000000 1.586446 -0.741052 6.405249 4.650948 -0.449968 6.674962 -11.339827 -26.571222 0.957857 0.000000 0.000000 0.000000 0.754223 -0.050506 0.987966 -4.273024 1.979727 -3.024105 3.199734 6.326405 13.492364 3.717151 -0.102683 -21.719634 0.000000 0.000000 0.000000 -17.064291 -9.200922 2.372746 -52.119060 -16.643258 0.291574 -21.864900 -76.667668 20.286408 0.000000 0.000000 0.000000 17.344359 16.827498 8.606903 46.814533 27.348700 4.962837 7.197950 62.728397 8.263517 0.000000 0.000000 0.000000 
0.013663 0.929733 0.128886 -0.071581 -3.352668 -0.957737 2.210104 -0.844082 -11.942115 -1.932747 0.147547 5.768446 4.086953 10.401334 9.088237 0.000000 0.000000 0.000000 0.981756 -0.709492 6.595855 4.648231 -0.442502 7.070198 -11.217901 -26.239917 1.253550 0.000000 0.000000 0.000000 0.336343 -0.012883 0.246442 -4.440389 2.062787 -2.666700 3.283417 6.112784 13.077018 3.555240 -0.115639 -21.163912 0.000000 0.000000 0.000000 -17.143390 -9.477907 2.595400 -51.509072 -17.201982 0.553704 -24.999016 -79.072782 23.899965 0.000000 0.000000 0.000000 16.922668 17.765172 8.933161 48.042914 28.029402 5.554134 6.876087 64.629220 8.325167 0.000000 0.000000 0.000000 
